<mxfile host="65bd71144e">
    <diagram name="Page-1" id="hvNq0bLNqhKwoZfUZP0T">
        <mxGraphModel dx="1012" dy="1316" grid="1" gridSize="10" guides="1" tooltips="1" connect="1" arrows="1" fold="1" page="1" pageScale="1" pageWidth="850" pageHeight="1100" math="0" shadow="0">
            <root>
                <mxCell id="0"/>
                <mxCell id="1" parent="0"/>
                <mxCell id="jyh1h8HAa2u7fzU4bVlv-119" value="&lt;b&gt;EX FLYTRAP CORE NETWORK&lt;/b&gt;" style="ellipse;whiteSpace=wrap;html=1;fontFamily=Helvetica;fontSize=11;labelBackgroundColor=default;fillColor=#dae8fc;strokeColor=#6c8ebf;labelPosition=center;verticalLabelPosition=top;align=center;verticalAlign=bottom;" parent="1" vertex="1">
                    <mxGeometry x="-130" y="-220" width="1000" height="805.25" as="geometry"/>
                </mxCell>
                <mxCell id="jyh1h8HAa2u7fzU4bVlv-79" value="CDAO AWS IL4/5 CLOUD" style="rounded=1;whiteSpace=wrap;html=1;labelPosition=center;verticalLabelPosition=top;align=center;verticalAlign=bottom;" parent="1" vertex="1">
                    <mxGeometry x="28.25" y="-100" width="177.5" height="90" as="geometry"/>
                </mxCell>
                <mxCell id="jyh1h8HAa2u7fzU4bVlv-113" value="&lt;div&gt;&lt;b&gt;Wider Objectives:&lt;/b&gt;&lt;/div&gt;&lt;div&gt;Get Data Across Echelons&amp;nbsp;&lt;/div&gt;&lt;div&gt;and Across Peers&lt;/div&gt;&lt;ul&gt;&lt;li&gt;GLOBAL&lt;/li&gt;&lt;li&gt;JOINT&lt;/li&gt;&lt;li&gt;COMBINED&lt;/li&gt;&lt;/ul&gt;&lt;div&gt;&lt;i&gt;(With care to prioritize&amp;nbsp;&lt;/i&gt;&lt;/div&gt;&lt;div&gt;&lt;i&gt;getting the data where&amp;nbsp;&lt;/i&gt;&lt;/div&gt;&lt;div&gt;&lt;i&gt;it is most valued.)&lt;/i&gt;&lt;/div&gt;&lt;div&gt;&lt;i&gt;&lt;br&gt;&lt;/i&gt;&lt;/div&gt;&lt;div&gt;&lt;i&gt;Initiate the establishment of&lt;/i&gt;&lt;/div&gt;&lt;div&gt;&lt;i&gt;the data backbone of the&lt;/i&gt;&lt;/div&gt;&lt;div&gt;&lt;i&gt;Eastern Flank Defense Line.&lt;/i&gt;&lt;/div&gt;&lt;div&gt;&lt;i&gt;&lt;br&gt;&lt;/i&gt;&lt;/div&gt;&lt;div&gt;&lt;i&gt;Wherever possible, utilize live data&lt;/i&gt;&lt;/div&gt;&lt;div&gt;&lt;i&gt;to generate timely insights and&lt;/i&gt;&lt;/div&gt;&lt;div&gt;&lt;i&gt;push it out to the point of need.&lt;/i&gt;&lt;/div&gt;" style="text;html=1;align=left;verticalAlign=middle;resizable=0;points=[];autosize=1;strokeColor=none;fillColor=none;fontFamily=Helvetica;fontSize=11;fontColor=default;labelBackgroundColor=default;" parent="1" vertex="1">
                    <mxGeometry x="-190" y="-310" width="190" height="260" as="geometry"/>
                </mxCell>
                <mxCell id="jyh1h8HAa2u7fzU4bVlv-78" value="1/RY" style="rounded=1;whiteSpace=wrap;html=1;fontFamily=Helvetica;fontSize=11;fontColor=default;labelBackgroundColor=default;dashed=1;labelPosition=center;verticalLabelPosition=bottom;align=center;verticalAlign=top;" parent="1" vertex="1">
                    <mxGeometry x="560" y="135" width="140" height="315" as="geometry"/>
                </mxCell>
                <mxCell id="jyh1h8HAa2u7fzU4bVlv-77" value="" style="rounded=1;whiteSpace=wrap;html=1;fontFamily=Helvetica;fontSize=11;fontColor=default;labelBackgroundColor=default;dashed=1;labelPosition=center;verticalLabelPosition=bottom;align=center;verticalAlign=top;" parent="1" vertex="1">
                    <mxGeometry x="210" y="305" width="90" height="135" as="geometry"/>
                </mxCell>
                <mxCell id="jyh1h8HAa2u7fzU4bVlv-75" value="3/2CR" style="rounded=1;whiteSpace=wrap;html=1;fontFamily=Helvetica;fontSize=11;fontColor=default;labelBackgroundColor=default;dashed=1;labelPosition=center;verticalLabelPosition=bottom;align=center;verticalAlign=top;" parent="1" vertex="1">
                    <mxGeometry x="340" y="130" width="145" height="270" as="geometry"/>
                </mxCell>
                <mxCell id="jyh1h8HAa2u7fzU4bVlv-12" value="Nett Warrior&amp;nbsp;&lt;div&gt;IL4/5 AWS CLOUD&lt;/div&gt;" style="rounded=1;whiteSpace=wrap;html=1;labelPosition=center;verticalLabelPosition=top;align=center;verticalAlign=bottom;" parent="1" vertex="1">
                    <mxGeometry x="281" y="-100" width="189" height="90" as="geometry"/>
                </mxCell>
                <mxCell id="jyh1h8HAa2u7fzU4bVlv-13" value="2CR TAK" style="rounded=1;whiteSpace=wrap;html=1;labelPosition=center;verticalLabelPosition=top;align=center;verticalAlign=bottom;" parent="1" vertex="1">
                    <mxGeometry x="310.5" y="-75" width="130" height="50" as="geometry"/>
                </mxCell>
                <mxCell id="jyh1h8HAa2u7fzU4bVlv-16" value="UK CLOUD" style="rounded=1;whiteSpace=wrap;html=1;labelPosition=center;verticalLabelPosition=top;align=center;verticalAlign=bottom;" parent="1" vertex="1">
                    <mxGeometry x="522.75" y="-100" width="177.25" height="90" as="geometry"/>
                </mxCell>
                <mxCell id="jyh1h8HAa2u7fzU4bVlv-17" value="1/RY TAK" style="rounded=1;whiteSpace=wrap;html=1;labelPosition=center;verticalLabelPosition=top;align=center;verticalAlign=bottom;" parent="1" vertex="1">
                    <mxGeometry x="560" y="-80" width="100" height="60" as="geometry"/>
                </mxCell>
                <mxCell id="jyh1h8HAa2u7fzU4bVlv-19" value="SOLDIER&lt;div&gt;(FIELD)&lt;/div&gt;" style="ellipse;whiteSpace=wrap;html=1;aspect=fixed;labelPosition=center;verticalLabelPosition=top;align=center;verticalAlign=bottom;" parent="1" vertex="1">
                    <mxGeometry x="377.5" y="310" width="70" height="70" as="geometry"/>
                </mxCell>
                <mxCell id="jyh1h8HAa2u7fzU4bVlv-20" style="rounded=0;orthogonalLoop=1;jettySize=auto;html=1;endArrow=none;startFill=0;" parent="1" source="jyh1h8HAa2u7fzU4bVlv-22" target="jyh1h8HAa2u7fzU4bVlv-23" edge="1">
                    <mxGeometry relative="1" as="geometry"/>
                </mxCell>
                <mxCell id="jyh1h8HAa2u7fzU4bVlv-21" value="" style="rounded=0;orthogonalLoop=1;jettySize=auto;html=1;endArrow=none;startFill=0;" parent="1" source="jyh1h8HAa2u7fzU4bVlv-22" target="jyh1h8HAa2u7fzU4bVlv-28" edge="1">
                    <mxGeometry relative="1" as="geometry"/>
                </mxCell>
                <mxCell id="jyh1h8HAa2u7fzU4bVlv-22" value="TRIK" style="rounded=1;whiteSpace=wrap;html=1;" parent="1" vertex="1">
                    <mxGeometry x="392.5" y="150" width="40" height="40" as="geometry"/>
                </mxCell>
                <mxCell id="jyh1h8HAa2u7fzU4bVlv-23" value="TSM" style="rounded=1;whiteSpace=wrap;html=1;" parent="1" vertex="1">
                    <mxGeometry x="392.5" y="224" width="40" height="40" as="geometry"/>
                </mxCell>
                <mxCell id="jyh1h8HAa2u7fzU4bVlv-24" style="rounded=0;orthogonalLoop=1;jettySize=auto;html=1;entryX=0.5;entryY=1;entryDx=0;entryDy=0;endArrow=none;startFill=0;" parent="1" source="jyh1h8HAa2u7fzU4bVlv-27" target="jyh1h8HAa2u7fzU4bVlv-23" edge="1">
                    <mxGeometry relative="1" as="geometry"/>
                </mxCell>
                <mxCell id="jyh1h8HAa2u7fzU4bVlv-27" value="RADIO" style="rounded=1;whiteSpace=wrap;html=1;" parent="1" vertex="1">
                    <mxGeometry x="392.5" y="325" width="40" height="40" as="geometry"/>
                </mxCell>
                <mxCell id="jyh1h8HAa2u7fzU4bVlv-114" style="edgeStyle=none;shape=connector;rounded=0;orthogonalLoop=1;jettySize=auto;html=1;entryX=0.5;entryY=1;entryDx=0;entryDy=0;strokeColor=default;align=center;verticalAlign=middle;fontFamily=Helvetica;fontSize=11;fontColor=default;labelBackgroundColor=default;startFill=0;endArrow=none;" parent="1" source="jyh1h8HAa2u7fzU4bVlv-28" target="jyh1h8HAa2u7fzU4bVlv-13" edge="1">
                    <mxGeometry relative="1" as="geometry"/>
                </mxCell>
                <mxCell id="jyh1h8HAa2u7fzU4bVlv-116" style="edgeStyle=none;shape=connector;rounded=0;orthogonalLoop=1;jettySize=auto;html=1;strokeColor=default;align=center;verticalAlign=middle;fontFamily=Helvetica;fontSize=11;fontColor=default;labelBackgroundColor=default;startFill=0;endArrow=none;" parent="1" source="jyh1h8HAa2u7fzU4bVlv-28" target="jyh1h8HAa2u7fzU4bVlv-80" edge="1">
                    <mxGeometry relative="1" as="geometry"/>
                </mxCell>
                <mxCell id="jyh1h8HAa2u7fzU4bVlv-28" value="pLEO / 5G&lt;div&gt;Transport&lt;/div&gt;" style="rounded=1;whiteSpace=wrap;html=1;" parent="1" vertex="1">
                    <mxGeometry x="231" y="70" width="389" height="40" as="geometry"/>
                </mxCell>
                <mxCell id="jyh1h8HAa2u7fzU4bVlv-30" value="SOLDIER" style="ellipse;whiteSpace=wrap;html=1;aspect=fixed;labelPosition=center;verticalLabelPosition=top;align=center;verticalAlign=bottom;" parent="1" vertex="1">
                    <mxGeometry x="595" y="345" width="70" height="70" as="geometry"/>
                </mxCell>
                <mxCell id="jyh1h8HAa2u7fzU4bVlv-31" style="edgeStyle=orthogonalEdgeStyle;rounded=0;orthogonalLoop=1;jettySize=auto;html=1;endArrow=none;startFill=0;" parent="1" source="jyh1h8HAa2u7fzU4bVlv-33" target="jyh1h8HAa2u7fzU4bVlv-34" edge="1">
                    <mxGeometry relative="1" as="geometry"/>
                </mxCell>
                <mxCell id="jyh1h8HAa2u7fzU4bVlv-109" style="edgeStyle=none;shape=connector;rounded=0;orthogonalLoop=1;jettySize=auto;html=1;entryX=0.75;entryY=1;entryDx=0;entryDy=0;strokeColor=default;align=center;verticalAlign=middle;fontFamily=Helvetica;fontSize=11;fontColor=default;labelBackgroundColor=default;startFill=0;endArrow=none;" parent="1" source="jyh1h8HAa2u7fzU4bVlv-33" target="jyh1h8HAa2u7fzU4bVlv-28" edge="1">
                    <mxGeometry relative="1" as="geometry"/>
                </mxCell>
                <mxCell id="jyh1h8HAa2u7fzU4bVlv-33" value="TRIK" style="rounded=1;whiteSpace=wrap;html=1;" parent="1" vertex="1">
                    <mxGeometry x="609.5" y="163" width="40" height="40" as="geometry"/>
                </mxCell>
                <mxCell id="jyh1h8HAa2u7fzU4bVlv-34" value="MPU5&lt;div&gt;MANET&lt;/div&gt;" style="rounded=1;whiteSpace=wrap;html=1;" parent="1" vertex="1">
                    <mxGeometry x="604.75" y="227" width="50.5" height="40" as="geometry"/>
                </mxCell>
                <mxCell id="jyh1h8HAa2u7fzU4bVlv-35" style="edgeStyle=orthogonalEdgeStyle;rounded=0;orthogonalLoop=1;jettySize=auto;html=1;entryX=0.5;entryY=1;entryDx=0;entryDy=0;endArrow=none;startFill=0;" parent="1" source="jyh1h8HAa2u7fzU4bVlv-38" target="jyh1h8HAa2u7fzU4bVlv-34" edge="1">
                    <mxGeometry relative="1" as="geometry"/>
                </mxCell>
                <mxCell id="jyh1h8HAa2u7fzU4bVlv-38" value="RADIO" style="rounded=1;whiteSpace=wrap;html=1;" parent="1" vertex="1">
                    <mxGeometry x="610" y="360" width="40" height="40" as="geometry"/>
                </mxCell>
                <mxCell id="jyh1h8HAa2u7fzU4bVlv-50" style="rounded=0;orthogonalLoop=1;jettySize=auto;html=1;entryX=1;entryY=0.5;entryDx=0;entryDy=0;endArrow=none;startFill=0;" parent="1" source="jyh1h8HAa2u7fzU4bVlv-45" target="jyh1h8HAa2u7fzU4bVlv-33" edge="1">
                    <mxGeometry relative="1" as="geometry"/>
                </mxCell>
                <mxCell id="jyh1h8HAa2u7fzU4bVlv-45" value="FUSION" style="rounded=1;whiteSpace=wrap;html=1;" parent="1" vertex="1">
                    <mxGeometry x="731.75" y="300" width="60" height="40" as="geometry"/>
                </mxCell>
                <mxCell id="jyh1h8HAa2u7fzU4bVlv-46" style="rounded=0;orthogonalLoop=1;jettySize=auto;html=1;entryX=0.5;entryY=1;entryDx=0;entryDy=0;endArrow=none;startFill=0;" parent="1" source="jyh1h8HAa2u7fzU4bVlv-47" target="jyh1h8HAa2u7fzU4bVlv-45" edge="1">
                    <mxGeometry relative="1" as="geometry">
                        <mxPoint x="782.5" y="435" as="sourcePoint"/>
                    </mxGeometry>
                </mxCell>
                <mxCell id="jyh1h8HAa2u7fzU4bVlv-47" value="SENSOR" style="rounded=1;whiteSpace=wrap;html=1;" parent="1" vertex="1">
                    <mxGeometry x="733.5" y="365" width="58.25" height="40" as="geometry"/>
                </mxCell>
                <mxCell id="jyh1h8HAa2u7fzU4bVlv-107" style="edgeStyle=none;shape=connector;rounded=0;orthogonalLoop=1;jettySize=auto;html=1;entryX=0;entryY=0.5;entryDx=0;entryDy=0;strokeColor=default;align=center;verticalAlign=middle;fontFamily=Helvetica;fontSize=11;fontColor=default;labelBackgroundColor=default;startFill=0;endArrow=none;" parent="1" source="jyh1h8HAa2u7fzU4bVlv-56" target="jyh1h8HAa2u7fzU4bVlv-22" edge="1">
                    <mxGeometry relative="1" as="geometry"/>
                </mxCell>
                <mxCell id="jyh1h8HAa2u7fzU4bVlv-56" value="FOCUS" style="rounded=1;whiteSpace=wrap;html=1;" parent="1" vertex="1">
                    <mxGeometry x="228" y="325" width="48" height="40" as="geometry"/>
                </mxCell>
                <mxCell id="jyh1h8HAa2u7fzU4bVlv-58" value="SENSOR" style="rounded=1;whiteSpace=wrap;html=1;" parent="1" vertex="1">
                    <mxGeometry x="225.75" y="385" width="52.5" height="40" as="geometry"/>
                </mxCell>
                <mxCell id="jyh1h8HAa2u7fzU4bVlv-59" value="" style="rounded=0;orthogonalLoop=1;jettySize=auto;html=1;entryX=0.5;entryY=1;entryDx=0;entryDy=0;endArrow=none;startFill=0;" parent="1" source="jyh1h8HAa2u7fzU4bVlv-58" target="jyh1h8HAa2u7fzU4bVlv-56" edge="1">
                    <mxGeometry relative="1" as="geometry">
                        <mxPoint x="237" y="335" as="sourcePoint"/>
                        <mxPoint x="252" y="395" as="targetPoint"/>
                    </mxGeometry>
                </mxCell>
                <mxCell id="jyh1h8HAa2u7fzU4bVlv-80" value="PLTR MSS" style="rounded=1;whiteSpace=wrap;html=1;labelPosition=center;verticalLabelPosition=top;align=center;verticalAlign=bottom;" parent="1" vertex="1">
                    <mxGeometry x="67.25" y="-70" width="108.5" height="50" as="geometry"/>
                </mxCell>
                <mxCell id="jyh1h8HAa2u7fzU4bVlv-117" style="edgeStyle=none;shape=connector;rounded=0;orthogonalLoop=1;jettySize=auto;html=1;entryX=0.5;entryY=1;entryDx=0;entryDy=0;strokeColor=default;align=center;verticalAlign=middle;fontFamily=Helvetica;fontSize=11;fontColor=default;labelBackgroundColor=default;startFill=0;endArrow=none;" parent="1" source="jyh1h8HAa2u7fzU4bVlv-82" target="jyh1h8HAa2u7fzU4bVlv-80" edge="1">
                    <mxGeometry relative="1" as="geometry"/>
                </mxCell>
                <mxCell id="jyh1h8HAa2u7fzU4bVlv-118" style="edgeStyle=none;shape=connector;rounded=0;orthogonalLoop=1;jettySize=auto;html=1;entryX=0;entryY=0.5;entryDx=0;entryDy=0;strokeColor=default;align=center;verticalAlign=middle;fontFamily=Helvetica;fontSize=11;fontColor=default;labelBackgroundColor=default;startFill=0;endArrow=none;dashed=1;" parent="1" source="jyh1h8HAa2u7fzU4bVlv-82" target="jyh1h8HAa2u7fzU4bVlv-13" edge="1">
                    <mxGeometry relative="1" as="geometry"/>
                </mxCell>
                <mxCell id="jyh1h8HAa2u7fzU4bVlv-82" value="AWS Comm. Cloud" style="rounded=1;whiteSpace=wrap;html=1;labelPosition=center;verticalLabelPosition=top;align=center;verticalAlign=bottom;" parent="1" vertex="1">
                    <mxGeometry x="-10" y="67.5" width="140" height="50" as="geometry"/>
                </mxCell>
                <mxCell id="jyh1h8HAa2u7fzU4bVlv-83" value="SkyFortress" style="rounded=1;whiteSpace=wrap;html=1;fontFamily=Helvetica;fontSize=11;fontColor=default;labelBackgroundColor=default;dashed=1;labelPosition=center;verticalLabelPosition=bottom;align=center;verticalAlign=top;" parent="1" vertex="1">
                    <mxGeometry x="11" y="318.5" width="90" height="87.5" as="geometry"/>
                </mxCell>
                <mxCell id="jyh1h8HAa2u7fzU4bVlv-101" style="edgeStyle=none;shape=connector;rounded=0;orthogonalLoop=1;jettySize=auto;html=1;entryX=0.5;entryY=1;entryDx=0;entryDy=0;strokeColor=default;align=center;verticalAlign=middle;fontFamily=Helvetica;fontSize=11;fontColor=default;labelBackgroundColor=default;startFill=0;endArrow=none;" parent="1" source="jyh1h8HAa2u7fzU4bVlv-84" target="jyh1h8HAa2u7fzU4bVlv-82" edge="1">
                    <mxGeometry relative="1" as="geometry"/>
                </mxCell>
                <mxCell id="jyh1h8HAa2u7fzU4bVlv-110" value="5G or pLEO&lt;div&gt;Transport&lt;/div&gt;" style="edgeLabel;html=1;align=center;verticalAlign=middle;resizable=0;points=[];fontFamily=Helvetica;fontSize=11;fontColor=default;labelBackgroundColor=default;" parent="jyh1h8HAa2u7fzU4bVlv-101" connectable="0" vertex="1">
                    <mxGeometry x="0.2455" y="-3" relative="1" as="geometry">
                        <mxPoint y="1" as="offset"/>
                    </mxGeometry>
                </mxCell>
                <mxCell id="jyh1h8HAa2u7fzU4bVlv-84" value="Acoustic SENSOR&lt;div&gt;with 5G&lt;/div&gt;" style="rounded=1;whiteSpace=wrap;html=1;" parent="1" vertex="1">
                    <mxGeometry x="25" y="350" width="60" height="40" as="geometry"/>
                </mxCell>
                <mxCell id="jyh1h8HAa2u7fzU4bVlv-108" style="edgeStyle=none;shape=connector;rounded=0;orthogonalLoop=1;jettySize=auto;html=1;entryX=0.25;entryY=1;entryDx=0;entryDy=0;strokeColor=default;align=center;verticalAlign=middle;fontFamily=Helvetica;fontSize=11;fontColor=default;labelBackgroundColor=default;startFill=0;endArrow=none;" parent="1" source="jyh1h8HAa2u7fzU4bVlv-95" target="jyh1h8HAa2u7fzU4bVlv-28" edge="1">
                    <mxGeometry relative="1" as="geometry"/>
                </mxCell>
                <mxCell id="jyh1h8HAa2u7fzU4bVlv-95" value="SOLDIER&lt;div&gt;(TOC)&lt;/div&gt;" style="ellipse;whiteSpace=wrap;html=1;aspect=fixed;labelPosition=center;verticalLabelPosition=top;align=center;verticalAlign=bottom;" parent="1" vertex="1">
                    <mxGeometry x="168.25" y="157" width="110" height="110" as="geometry"/>
                </mxCell>
                <mxCell id="jyh1h8HAa2u7fzU4bVlv-97" value="WINTAK" style="rounded=1;whiteSpace=wrap;html=1;" parent="1" vertex="1">
                    <mxGeometry x="205.75" y="186.5" width="63.75" height="27.5" as="geometry"/>
                </mxCell>
                <mxCell id="jyh1h8HAa2u7fzU4bVlv-98" value="MSS IL5 Web Client" style="rounded=1;whiteSpace=wrap;html=1;" parent="1" vertex="1">
                    <mxGeometry x="178.25" y="216" width="67.5" height="30" as="geometry"/>
                </mxCell>
                <mxCell id="jyh1h8HAa2u7fzU4bVlv-115" style="edgeStyle=none;shape=connector;rounded=0;orthogonalLoop=1;jettySize=auto;html=1;entryX=0.43;entryY=0.983;entryDx=0;entryDy=0;entryPerimeter=0;strokeColor=default;align=center;verticalAlign=middle;fontFamily=Helvetica;fontSize=11;fontColor=default;labelBackgroundColor=default;startFill=0;endArrow=none;" parent="1" source="jyh1h8HAa2u7fzU4bVlv-28" target="jyh1h8HAa2u7fzU4bVlv-17" edge="1">
                    <mxGeometry relative="1" as="geometry"/>
                </mxCell>
            </root>
        </mxGraphModel>
    </diagram>
</mxfile>